<?xml version="1.0" encoding="UTF-8" standalone="no"?>
<svg
   xmlnsDc="http://purl.org/dc/elements/1.1/"
   xmlnsCc="http://creativecommons.org/ns#"
   xmlnsRdf="http://www.w3.org/1999/02/22-rdf-syntax-ns#"
   xmlnsSvg="http://www.w3.org/2000/svg"
   xmlns="http://www.w3.org/2000/svg"
   xmlnsSodipodi="http://sodipodi.sourceforge.net/DTD/sodipodi-0.dtd"
   xmlnsInkscape="http://www.inkscape.org/namespaces/inkscape"
   width="210mm"
   height="297mm"
   viewBox="0 0 210 297"
   version="1.1"
   id="svg1199"
   inkscapeVersion="1.0.2-2 (e86c870879, 2021-01-15)"
   sodipodiDocname="sbvg_inverted_bgnd.svg">
  <defs
     id="defs1193">
    <inkscape:path-effect
       effect="mirror_symmetry"
       startPoint="279.63345,181.94053"
       endPoint="279.63345,223.69682"
       centerPoint="279.63345,202.81867"
       id="path-effect1978"
       isVisible="true"
       lpeversion="1"
       mode="free"
       discardOrigPath="false"
       fusePaths="true"
       opositeFuse="false"
       splitItems="false" />
  </defs>
  <sodipodi:namedview
     id="base"
     pagecolor="#ffffff"
     bordercolor="#666666"
     borderopacity="1.0"
     inkscapePageopacity="0.0"
     inkscapePageshadow="2"
     inkscapeZoom="0.98994949"
     inkscapeCx="43.377776"
     inkscapeCy="627.12995"
     inkscapeDocumentUnits="mm"
     inkscapeCurrentLayer="layer1"
     inkscapeDocumentRotation="0"
     showgrid="false"
     inkscapeWindowWidth="1920"
     inkscapeWindowHeight="1046"
     inkscapeWindowX="-11"
     inkscapeWindowY="-11"
     inkscapeWindowMaximized="1" />
  <metadata
     id="metadata1196">
    <rdf:RDF>
      <cc:Work
         rdfAbout="">
        <dc:format>image/svg+xml</dc:format>
        <dc:type
           rdfResource="http://purl.org/dc/dcmitype/StillImage" />
        <dc:title></dc:title>
      </cc:Work>
    </rdf:RDF>
  </metadata>
  <g
     inkscapeLabel="Layer 1"
     inkscapeGroupmode="layer"
     id="layer1">
    <rect
       style="fill:#000000;fill-opacity:1;fill-rule:evenodd;stroke:#000000;stroke-width:0.0869892;stroke-linecap:round;stroke-opacity:0"
       id="rect840"
       width="125.50111"
       height="79.388016"
       x="45.350639"
       y="106.58278" />
    <circle
       id="path1786-8-4"
       style="fill:#000000;stroke:#f20000;stroke-width:0.264583"
       cx="84.712196"
       cy="130.20195"
       r="0.0066750557" />
    <path
       style="font-variation-settings:normal;vector-effect:none;fill:none;fill-opacity:1;stroke:#000000;stroke-width:0.1;stroke-linecap:butt;stroke-linejoin:miter;stroke-miterlimit:4;stroke-dasharray:none;stroke-dashoffset:0;stroke-opacity:0;stop-color:#000000"
       d="m 85.981733,111.69352 c -7.22737,-0.006 -27.41171,1.62176 -29.80055,11.29214 -1.30206,5.27094 4.89222,8.66931 11.84641,11.83713 -0.83903,8.05679 -0.78298,15.3755 -0.47921,22.43287 -4.72611,0.30852 -9.5658,0.1145 -13.30491,0.0741 -0.93007,-0.01 -0.10354,2.45943 0.80181,2.6727 3.48106,0.82003 8.07844,1.29705 12.71638,0.62444 0.0586,4.20373 -0.97051,18.53397 0.59884,19.24074 14.87406,1.49642 22.24536,-4.30535 21.83693,-11.91744 -0.34983,-6.52006 -10.48949,-7.71308 -14.5583,-8.34436 0,0 12.44515,-5.16353 13.61665,-11.89778 2.21067,-12.7078 -30.56079,-16.89335 -29.93419,-24.52195 0.48895,-5.95264 20.65273,-9.16046 27.72922,-9.88897 0.63906,-0.0658 -0.42664,-1.6031 -1.06908,-1.60362 z"
       id="path1798-5-4"
       sodipodiNodetypes="ssccssccscssss" />
    <path
       style="font-variation-settings:normal;vector-effect:none;fill:none;fill-opacity:1;stroke:#000000;stroke-width:0.1;stroke-linecap:butt;stroke-linejoin:miter;stroke-miterlimit:4;stroke-dasharray:none;stroke-dashoffset:0;stroke-opacity:0;stop-color:#000000"
       d="m 71.749633,135.88141 c -0.75323,6.88219 -0.56569,13.76438 -0.46773,20.64657 5.01919,-0.92672 12.92888,-4.8569 14.09847,-8.88671 1.67263,-5.76303 -7.85623,-10.51077 -13.63074,-11.75986 z"
       id="path1800-8-9"
       sodipodiNodetypes="ccsc" />
    <path
       style="font-variation-settings:normal;vector-effect:none;fill:none;fill-opacity:1;stroke:#000000;stroke-width:0.1;stroke-linecap:butt;stroke-linejoin:miter;stroke-miterlimit:4;stroke-dasharray:none;stroke-dashoffset:0;stroke-opacity:0;stop-color:#000000"
       d="m 71.148273,162.20746 c -0.24154,5.37893 -0.87375,11.98573 -0.30711,14.82466 -0.13904,0.62567 15.14254,-0.42157 15.34102,-7.34111 0.22247,-7.75593 -15.03391,-7.74465 -15.03391,-7.48355 z"
       id="path1802-9-1"
       sodipodiNodetypes="ccsc" />
    <path
       style="fill:#ffffff;fill-opacity:1;fill-rule:evenodd;stroke:#000000;stroke-width:0.0225913;stroke-linecap:round;stroke-opacity:0"
       d="m 279.01262,221.35889 c -2.66659,-0.50702 -4.63209,-3.77438 -7.00678,-7.32628 -1.93113,-2.88846 -4.15295,-7.97184 -5.5759,-11.95201 -2.13413,-5.96941 -3.87785,-11.02736 -5.04526,-16.73579 -0.32564,-1.5923 -0.5991,-3.91664 -0.5384,-4.84595 0.0603,-0.92315 1.66728,-1.02313 1.99112,-0.54499 0.41512,0.61292 1.51965,5.29183 2.3467,7.9172 1.26945,4.02971 2.19544,8.20884 4.0136,12.02255 2.70102,5.66557 7.87551,15.37849 10.43575,17.13653 2.56024,-1.75804 7.73473,-11.47096 10.43575,-17.13653 1.81816,-3.81371 2.74415,-7.99284 4.0136,-12.02255 0.82705,-2.62537 1.93158,-7.30428 2.3467,-7.9172 0.32384,-0.47814 1.93082,-0.37816 1.99112,0.54499 0.0607,0.92931 -0.21276,3.25365 -0.5384,4.84595 -1.16741,5.70843 -2.91113,10.76638 -5.04526,16.73579 -1.42295,3.98017 -3.64477,9.06355 -5.5759,11.95201 -2.37469,3.5519 -4.34019,6.81926 -7.00678,7.32628 l 2e-5,1e-5 c -0.15803,0.03 -0.37436,0.05 -0.62085,0.0607 -0.24649,-0.0107 -0.46282,-0.0307 -0.62085,-0.0607 z"
       id="path1816-1-8"
       sodipodiNodetypes="sssassaascscssssss"
       inkscapePath-effect="#path-effect1978"
       inkscapeOriginalD="m 279.01262,221.35889 c -2.66659,-0.50702 -4.63209,-3.77438 -7.00678,-7.32628 -1.93113,-2.88846 -4.15295,-7.97184 -5.5759,-11.95201 -2.13413,-5.96941 -3.87785,-11.02736 -5.04526,-16.73579 -0.32564,-1.5923 -0.5991,-3.91664 -0.5384,-4.84595 0.0603,-0.92315 1.66728,-1.02313 1.99112,-0.54499 0.41512,0.61292 1.51965,5.29183 2.3467,7.9172 1.26945,4.02971 2.19544,8.20884 4.0136,12.02255 2.96215,6.2133 8.89913,17.29435 11.1004,17.41252 2.0664,0.11093 11.77017,-14.68999 12.62118,-16.59976 1.62923,-3.67725 3.50951,-8.41208 5.67363,-14.35951 1.70973,-4.69868 1.68247,-6.17303 1.93854,-6.52039 0.10322,-0.1401 1.62514,-0.29303 1.59101,0.32123 -0.13129,2.36378 -1.28792,7.96687 -2.70495,13.10376 -2.4669,8.94266 -6.99847,15.73828 -10.36554,20.4669 -2.71084,3.80703 -4.1469,6.86549 -7.1105,7.55953 -0.67799,0.15878 -2.28591,0.20324 -2.92887,0.081 z"
       transform="translate(-170.01369,-43.089286)" />
    <path
       style="fill:#feffff;fill-opacity:1;fill-rule:evenodd;stroke:#000000;stroke-width:0.0601698;stroke-linecap:round;stroke-opacity:0"
       d="m 152.04356,178.31415 c -7.05873,-1.05315 -12.87815,-3.15669 -16.92749,-6.11875 -1.52761,-1.11744 -3.76646,-3.3495 -4.70455,-4.69028 -5.01183,-7.16321 -3.63663,-16.80578 3.50334,-24.56459 3.96966,-4.3137 9.73219,-7.60725 15.87581,-9.07374 1.91481,-0.45707 4.75915,-0.88565 5.87775,-0.88565 0.6723,0 0.82721,0.0748 1.5423,0.74499 0.76675,0.71859 1.10645,1.3791 0.93381,1.81575 -0.0476,0.12042 -1.23518,0.49347 -2.80491,0.88114 -8.22769,2.03188 -14.10525,4.57115 -17.36892,7.50389 -2.8977,2.60387 -5.24675,6.38201 -6.16406,9.91408 -0.48167,1.85474 -0.46914,5.02281 0.0269,6.81412 1.40884,5.08696 6.064,9.5992 12.32407,11.94575 2.8822,1.08037 7.13716,1.86616 9.53603,1.76108 1.09829,-0.048 1.30804,-0.10892 1.85833,-0.5381 0.7286,-0.56834 1.55221,-2.05717 1.94421,-3.51454 0.40822,-1.51766 0.36454,-5.16096 -0.0811,-6.76834 -0.60928,-2.19734 -1.48224,-3.42541 -2.43612,-3.42705 -0.23242,-6.2e-4 -1.02091,0.11963 -1.75221,0.26674 -1.53005,0.30778 -2.10681,0.20062 -2.4287,-0.45125 -0.2846,-0.57632 -0.0355,-1.12034 0.74125,-1.61931 2.69738,-1.73256 7.09946,-1.63053 9.90118,0.22949 0.47981,0.31851 1.01557,0.83344 1.19062,1.14426 0.30446,0.54065 0.30632,0.58937 0.0431,1.12531 -0.34867,0.70967 -0.72823,0.725 -2.21957,0.0897 -1.24543,-0.53053 -1.77753,-0.59557 -1.77753,-0.21722 0,0.13931 0.17864,0.89801 0.39696,1.68602 0.78762,2.84271 0.95882,4.205 0.95862,7.62797 -1.6e-4,2.83587 -0.0423,3.36296 -0.35766,4.4671 -0.60346,2.11323 -1.64458,3.44469 -3.08406,3.94413 -0.78533,0.27245 -2.30791,0.24142 -4.54732,-0.0928 z"
       id="path1820-1-8" />
    <path
       style="fill:#ffffff;fill-opacity:0.99607801;fill-rule:evenodd;stroke:#000000;stroke-width:0.0505076;stroke-linecap:round;stroke-opacity:0"
       d="m 68.999733,179.83031 c -1.19251,-0.12009 -1.27774,-0.64883 -1.27774,-7.92636 0,-3.12371 0.0464,-6.96532 0.10307,-8.53691 l 0.10307,-2.85744 -0.63761,0.0856 c -0.35068,0.0471 -1.72005,0.12313 -3.04303,0.16901 -3.02776,0.10502 -5.64042,-0.12733 -8.62209,-0.76678 -0.84422,-0.18105 -1.26518,-0.5815 -1.51618,-1.4423 -0.3426,-1.17497 -0.85848,-1.08371 6.12616,-1.08371 3.39888,0 6.44627,-0.0365 6.77198,-0.0812 l 0.5922,-0.0812 -0.0553,-6.44024 c -0.0593,-6.90155 0.14149,-12.43693 0.56832,-15.66563 l 0.0554,-0.41897 -2.82885,-1.40956 c -3.61382,-1.8007 -5.41158,-2.9718 -6.98528,-4.55036 -1.50528,-1.50993 -2.06807,-2.56219 -2.1632,-4.04466 -0.13021,-2.02887 0.6331,-3.78432 2.44033,-5.61231 1.37011,-1.38583 2.50765,-2.16595 4.6563,-3.19323 4.67,-2.23277 11.45723,-3.63323 19.7717,-4.07963 2.64917,-0.14223 2.9355,-0.13635 3.24533,0.0667 0.39317,0.25761 0.90078,1.03029 0.7581,1.15396 -0.0533,0.0462 -0.96893,0.18739 -2.03467,0.31369 -1.06574,0.1263 -3.20055,0.44014 -4.74403,0.69743 -10.65702,1.77646 -18.07663,4.39157 -20.25179,7.13793 -1.2815,1.61803 -1.03498,3.39964 0.69157,4.99813 1.86366,1.72542 4.03032,2.89282 11.8094,6.36292 7.39568,3.29906 11.36967,5.60086 13.79633,7.99102 5.02848,4.95284 3.50596,10.25147 -4.4419,15.4586 -1.60926,1.05433 -3.83267,2.28218 -5.44103,3.00475 -0.5671,0.25477 -1.03315,0.49625 -1.03567,0.53661 -0.003,0.0404 0.88242,0.2134 1.96653,0.38451 5.38293,0.84961 8.86924,2.16727 10.80251,4.08285 1.61309,1.59831 2.12699,3.18438 1.8198,5.61654 -0.30148,2.38701 -1.0771,3.92272 -2.90165,5.74525 -2.1522,2.14981 -4.74109,3.3414 -9.01907,4.15123 -0.82709,0.15657 -2.13498,0.2257 -4.81086,0.25427 -2.02122,0.0216 -3.94187,0.0124 -4.2681,-0.0205 z m 6.60671,-2.90709 c 6.27369,-1.12113 10.11988,-3.50935 10.60619,-6.58573 0.47722,-3.01886 -1.49519,-5.48801 -5.53825,-6.93306 -2.28738,-0.81754 -6.51907,-1.47897 -8.74289,-1.36654 l -0.86863,0.0439 -0.15454,2.47224 c -0.45076,7.21096 -0.51278,10.6311 -0.22267,12.27903 l 0.0796,0.45234 1.81922,-0.0736 c 1.00057,-0.0405 2.36044,-0.17035 3.02194,-0.28856 z m -2.93933,-20.59125 c 5.41108,-1.40591 11.08034,-4.95707 12.47494,-7.81413 0.78273,-1.60356 0.67993,-3.42589 -0.28638,-5.07644 -0.55956,-0.9558 -2.45178,-2.84442 -3.63657,-3.62965 -1.28828,-0.85383 -3.14492,-1.84831 -4.67994,-2.50673 -1.33338,-0.57193 -4.16446,-1.48245 -4.60938,-1.48245 -0.29908,0 -0.34003,0.18491 -0.54744,2.47224 -0.1944,2.14391 -0.32417,18.37478 -0.1469,18.37478 0.0727,0 0.71699,-0.15193 1.43167,-0.33762 z"
       id="path1834-7-3" />
    <text
       xmlSpace="preserve"
       style="font-style:normal;font-variant:normal;font-weight:normal;font-stretch:normal;font-size:10.5833px;line-height:1.25;font-family:Bahnschrift;-inkscape-font-specification:'Bahnschrift, Normal';font-variant-ligatures:normal;font-variant-caps:normal;font-variant-numeric:normal;font-variant-east-asian:normal;fill:#ffffff;fill-opacity:1;stroke:none;stroke-width:0.264583;"
       x="89.340431"
       y="127.01493"
       id="text1842-8-4"><tspan
         sodipodiRole="line"
         id="tspan1840-4-9"
         x="89.340431"
         y="127.01493"
         style="font-style:normal;font-variant:normal;font-weight:normal;font-stretch:normal;font-size:10.5833px;font-family:Bahnschrift;-inkscape-font-specification:'Bahnschrift, Normal';font-variant-ligatures:normal;font-variant-caps:normal;font-variant-numeric:normal;font-variant-east-asian:normal;stroke-width:0.264583;fill:#ffffff;fill-opacity:1;">PHOTOGRAPHY</tspan></text>
  </g>
</svg>
